<svg width="140" height="140" viewBox="0 0 140 140" fill="none" xmlns="http://www.w3.org/2000/svg">
<path d="M96.25 24.0232C103.486 24.0232 109.375 29.9119 109.375 37.1482V55.4707C109.375 56.631 109.836 57.7438 110.656 58.5643C111.477 59.3847 112.59 59.8457 113.75 59.8457C114.91 59.8457 116.023 59.3847 116.844 58.5643C117.664 57.7438 118.125 56.631 118.125 55.4707V37.1438C118.125 25.0819 108.312 15.2688 96.25 15.2688H70C68.8397 15.2688 67.7269 15.7297 66.9064 16.5502C66.0859 17.3707 65.625 18.4835 65.625 19.6438C65.625 20.8041 66.0859 21.9169 66.9064 22.7374C67.7269 23.5579 68.8397 24.0188 70 24.0188L96.25 24.0232ZM26.25 80.1544C25.0897 80.1544 23.9769 80.6154 23.1564 81.4358C22.3359 82.2563 21.875 83.3691 21.875 84.5294V102.852C21.875 114.914 31.6881 124.727 43.75 124.727H63.7875C64.9478 124.727 66.0606 124.266 66.8811 123.446C67.7016 122.625 68.1625 121.512 68.1625 120.352C68.1625 119.192 67.7016 118.079 66.8811 117.258C66.0606 116.438 64.9478 115.977 63.7875 115.977H43.75C36.5138 115.977 30.625 110.088 30.625 102.852V84.525C30.625 83.3647 30.1641 82.2519 29.3436 81.4315C28.5231 80.611 27.4103 80.1544 26.25 80.1544Z" fill="url(#paint0_linear_24_591)"/>
<path d="M34.6069 4.25989C43.2977 4.25989 50.3683 11.3304 50.3683 20.0212C50.3683 28.712 43.2977 35.7826 34.6069 35.7826C25.9161 35.7826 18.8456 28.712 18.8456 20.0212C18.8456 11.3304 25.9161 4.25989 34.6069 4.25989ZM61.8311 68.7381C61.8311 71.112 59.9065 73.0366 57.5325 73.0366H11.6814C9.30741 73.0366 7.38281 71.112 7.38281 68.7381V60.141C7.38281 51.1719 11.7427 43.2018 18.4541 38.239C22.7564 42.0579 28.4156 44.3796 34.6069 44.3796C40.7983 44.3796 46.4574 42.0579 50.7597 38.239C57.4712 43.2018 61.8311 51.1719 61.8311 60.141V68.7381Z" fill="url(#paint1_linear_24_591)"/>
<path d="M105.427 66.7188C114.118 66.7188 121.189 73.7893 121.189 82.4801C121.189 91.1709 114.118 98.2414 105.427 98.2414C96.7364 98.2414 89.6659 91.1709 89.6659 82.4801C89.6659 73.7893 96.7364 66.7188 105.427 66.7188ZM132.651 131.197C132.651 133.571 130.727 135.495 128.353 135.495H82.5017C80.1277 135.495 78.2031 133.571 78.2031 131.197V122.6C78.2031 113.631 82.563 105.661 89.2745 100.698C93.5767 104.517 99.2359 106.839 105.427 106.839C111.619 106.839 117.278 104.517 121.58 100.698C128.291 105.661 132.651 113.631 132.651 122.6V131.197Z" fill="url(#paint2_linear_24_591)"/>
<defs>
<linearGradient id="paint0_linear_24_591" x1="70" y1="179.062" x2="70" y2="-23.5215" gradientUnits="userSpaceOnUse">
<stop stop-color="#FFC8D1"/>
<stop offset="1" stop-color="#FFF6F7"/>
</linearGradient>
<linearGradient id="paint1_linear_24_591" x1="63.0147" y1="80.0706" x2="2.88869" y2="76.7709" gradientUnits="userSpaceOnUse">
<stop stop-color="#E72E3F"/>
<stop offset="1" stop-color="#F06471"/>
</linearGradient>
<linearGradient id="paint2_linear_24_591" x1="133.835" y1="142.529" x2="73.709" y2="139.23" gradientUnits="userSpaceOnUse">
<stop stop-color="#E72E3F"/>
<stop offset="1" stop-color="#F06471"/>
</linearGradient>
</defs>
</svg>
