<svg width="30" height="30" viewBox="0 0 30 30" fill="none" xmlns="http://www.w3.org/2000/svg">
<g id="Social icon" clip-path="url(#clip0_24_63525)">
<path id="Vector" d="M29.66 15.3797C29.66 7.41023 23.1995 0.949707 15.23 0.949707C7.26051 0.949707 0.799988 7.41023 0.799988 15.3797C0.799988 22.582 6.0768 28.5519 12.9753 29.6344V19.5509H9.31143V15.3797H12.9753V12.2006C12.9753 8.58408 15.1297 6.58643 18.4257 6.58643C20.004 6.58643 21.6558 6.86826 21.6558 6.86826V10.4194H19.8363C18.0438 10.4194 17.4847 11.5318 17.4847 12.6741V15.3797H21.4867L20.847 19.5509H17.4847V29.6344C24.3832 28.5519 29.66 22.582 29.66 15.3797Z" fill="white"/>
</g>
<defs>
<clipPath id="clip0_24_63525">
<rect width="28.86" height="28.86" fill="white" transform="translate(0.799988 0.949707)"/>
</clipPath>
</defs>
</svg>
