<svg width="140" height="140" viewBox="0 0 140 140" fill="none" xmlns="http://www.w3.org/2000/svg">
<g id="Frame">
<g id="Group">
<path id="Vector" d="M70 140C69.5619 140 69.1239 139.93 68.7031 139.789C53.5461 134.753 40.3616 125.068 31.0226 112.111C21.6836 99.1536 16.665 83.5831 16.6797 67.6112V25.9765C16.6797 23.7114 18.5161 21.875 20.7812 21.875H21.7924C30.338 21.8751 38.7849 20.0483 46.5668 16.5172C54.3488 12.986 61.2859 7.83205 66.9131 1.40077C67.2981 0.960777 67.7727 0.608165 68.3051 0.366575C68.8375 0.124984 69.4153 0 70 0C70.5846 0 71.1625 0.124984 71.6949 0.366575C72.2273 0.608165 72.7018 0.960777 73.0868 1.40077C78.7141 7.83206 85.6512 12.986 93.4331 16.5172C101.215 20.0484 109.662 21.8751 118.208 21.875H119.219C121.484 21.875 123.32 23.7114 123.32 25.9765V67.6112C123.335 83.5832 118.316 99.1537 108.977 112.111C99.6384 125.068 86.4539 134.753 71.2969 139.789C70.8761 139.93 70.438 140 70 140Z" fill="#FF4E5E"/>
<path id="Vector_2" d="M70 10.1029C57.9727 22.1369 41.8792 29.2372 24.8828 30.0081V67.6112C24.8828 96.4173 42.9546 121.943 70 131.561C97.0454 121.943 115.117 96.4173 115.117 67.6112V30.0081C98.1208 29.2371 82.0274 22.1368 70 10.1029ZM70 33.3593C78.2925 33.3593 85.0391 40.1058 85.0391 48.3984C85.0391 56.6909 78.2925 63.4374 70 63.4374C61.7075 63.4374 54.9609 56.6909 54.9609 48.3984C54.9609 40.1058 61.7075 33.3593 70 33.3593ZM95.9766 94.8828C95.9766 97.1479 94.1402 98.9843 91.875 98.9843H48.125C45.8598 98.9843 44.0234 97.1479 44.0234 94.8828V86.6796C44.0234 78.1216 48.1835 70.5167 54.5874 65.7813C58.6925 69.4252 64.0924 71.6406 70 71.6406C75.9076 71.6406 81.3075 69.4252 85.4126 65.7813C91.8165 70.5167 95.9766 78.1216 95.9766 86.6796V94.8828Z" fill="url(#paint0_linear_24_459)"/>
</g>
</g>
<defs>
<linearGradient id="paint0_linear_24_459" x1="70" y1="131.561" x2="70" y2="10.1029" gradientUnits="userSpaceOnUse">
<stop stop-color="#FFC8D1"/>
<stop offset="1" stop-color="#FFF6F7"/>
</linearGradient>
</defs>
</svg>
