<svg width="29" height="29" viewBox="0 0 29 29" fill="none" xmlns="http://www.w3.org/2000/svg">
<g id="instagram 1" clip-path="url(#clip0_115_288)">
<g id="Group">
<path id="Vector" d="M14.52 2.90222C18.258 2.90222 18.7013 2.91622 20.1771 2.98388C21.7031 3.05388 23.2746 3.40155 24.3865 4.51338C25.5088 5.63572 25.846 7.19205 25.916 8.72272C25.9836 10.1985 25.9976 10.6419 25.9976 14.3799C25.9976 18.1179 25.9836 18.5612 25.916 20.037C25.8471 21.5549 25.4913 23.1415 24.3865 24.2464C23.2641 25.3687 21.709 25.7059 20.1771 25.7759C18.7013 25.8435 18.258 25.8575 14.52 25.8575C10.782 25.8575 10.3386 25.8435 8.86279 25.7759C7.35662 25.707 5.74896 25.343 4.65346 24.2464C3.53696 23.1299 3.19396 21.5584 3.12396 20.037C3.05629 18.5612 3.04229 18.1179 3.04229 14.3799C3.04229 10.6419 3.05629 10.1985 3.12396 8.72272C3.19279 7.21072 3.55213 5.61472 4.65346 4.51338C5.77346 3.39338 7.33562 3.05388 8.86279 2.98388C10.3386 2.91622 10.782 2.90222 14.52 2.90222ZM14.52 0.379883C10.7178 0.379883 10.2406 0.396216 8.74729 0.463883C6.58312 0.563049 4.43412 1.16505 2.86963 2.72955C1.29929 4.29988 0.703125 6.44422 0.603958 8.60722C0.536292 10.1005 0.519958 10.5777 0.519958 14.3799C0.519958 18.182 0.536292 18.6592 0.603958 20.1525C0.703125 22.3144 1.30746 24.4692 2.86963 26.0302C4.43879 27.5994 6.58663 28.1967 8.74729 28.2959C10.2406 28.3635 10.7178 28.3799 14.52 28.3799C18.3221 28.3799 18.7993 28.3635 20.2926 28.2959C22.4556 28.1967 24.607 27.5935 26.1703 26.0302C27.7418 24.4587 28.3368 22.3155 28.436 20.1525C28.5036 18.6592 28.52 18.182 28.52 14.3799C28.52 10.5777 28.5036 10.1005 28.436 8.60722C28.3368 6.44305 27.7336 4.29288 26.1703 2.72955C24.6035 1.16272 22.4498 0.561883 20.2926 0.463883C18.7993 0.396216 18.3221 0.379883 14.52 0.379883Z" fill="white"/>
<path id="Vector_2" d="M14.5199 7.19092C10.5498 7.19092 7.33093 10.4098 7.33093 14.3799C7.33093 18.3501 10.5498 21.5689 14.5199 21.5689C18.4901 21.5689 21.7089 18.3501 21.7089 14.3799C21.7089 10.4098 18.4901 7.19092 14.5199 7.19092ZM14.5199 19.0466C11.9428 19.0466 9.85327 16.9571 9.85327 14.3799C9.85327 11.8028 11.9428 9.71325 14.5199 9.71325C17.0971 9.71325 19.1866 11.8028 19.1866 14.3799C19.1866 16.9571 17.0971 19.0466 14.5199 19.0466Z" fill="white"/>
<path id="Vector_3" d="M21.9936 8.58607C22.9214 8.58607 23.6736 7.83391 23.6736 6.90607C23.6736 5.97824 22.9214 5.22607 21.9936 5.22607C21.0658 5.22607 20.3136 5.97824 20.3136 6.90607C20.3136 7.83391 21.0658 8.58607 21.9936 8.58607Z" fill="white"/>
</g>
</g>
<defs>
<clipPath id="clip0_115_288">
<rect width="28" height="28" fill="white" transform="translate(0.519958 0.379883)"/>
</clipPath>
</defs>
</svg>
