<svg width="29" height="30" viewBox="0 0 29 30" fill="none" xmlns="http://www.w3.org/2000/svg">
<g id="Group">
<path id="Vector" d="M26.8036 0.949707H2.21064C1.03256 0.949707 0.0799561 1.87977 0.0799561 3.02966V27.7241C0.0799561 28.874 1.03256 29.8097 2.21064 29.8097H26.8036C27.9817 29.8097 28.94 28.874 28.94 27.7298V3.02966C28.94 1.87977 27.9817 0.949707 26.8036 0.949707ZM8.64213 25.5427H4.35823V11.7666H8.64213V25.5427ZM6.50018 9.88954C5.12482 9.88954 4.01439 8.77911 4.01439 7.40939C4.01439 6.03966 5.12482 4.92923 6.50018 4.92923C7.8699 4.92923 8.98033 6.03966 8.98033 7.40939C8.98033 8.77347 7.8699 9.88954 6.50018 9.88954ZM24.673 25.5427H20.3947V18.8463C20.3947 17.2511 20.3665 15.1937 18.1682 15.1937C15.9417 15.1937 15.6035 16.9354 15.6035 18.7336V25.5427H11.3308V11.7666H15.4344V13.6492H15.4907C16.0601 12.567 17.458 11.4227 19.5379 11.4227C23.8725 11.4227 24.673 14.2749 24.673 17.9839V25.5427Z" fill="white"/>
</g>
</svg>
