<svg width="140" height="140" viewBox="0 0 140 140" fill="none" xmlns="http://www.w3.org/2000/svg">
<circle cx="115.433" cy="24.6798" r="24.5667" fill="#2F52C6"/>
<path d="M15.7383 37.125C16.904 35.0849 19.5269 35.0849 21.2755 36.5421L92.0933 107.068L85.3904 128.343L18.3612 61.6052C11.6582 54.9023 10.7839 44.7022 15.7383 37.125Z" fill="url(#paint0_linear_24_479)"/>
<path d="M84.2251 99.1996L95.008 109.983L70.2364 113.188L68.7792 107.068L84.2251 99.1996Z" fill="url(#paint1_linear_24_479)"/>
<path d="M88.0119 106.194L82.4747 111.731C78.6861 115.52 78.6861 121.931 82.4747 125.72L91.2176 134.463C98.212 141.166 109.286 141.166 115.989 134.463C122.692 127.468 122.692 116.394 115.989 109.691L112.492 106.194C106.081 99.491 95.0062 99.491 88.0119 106.194ZM108.995 116.103C111.909 119.017 111.909 123.971 108.995 126.886C106.081 129.8 101.126 129.8 98.212 126.886L90.9262 119.6C90.3433 119.017 90.3433 118.143 90.9262 117.56L95.2977 113.188C98.212 110.274 103.166 110.274 106.081 113.188L108.995 116.103Z" fill="url(#paint2_linear_24_479)"/>
<g filter="url(#filter0_b_24_479)">
<path d="M0 25.0722C0 24.3249 0.605792 23.7191 1.35307 23.7191H138.534C139.281 23.7191 139.887 24.3249 139.887 25.0722V75.1151C139.887 75.8624 139.281 76.4682 138.534 76.4682H1.35307C0.605787 76.4682 0 75.8624 0 75.1151V25.0722Z" fill="url(#paint3_linear_24_479)"/>
</g>
<path d="M99.379 23.7191H111.911V76.4682H99.379V23.7191Z" fill="url(#paint4_linear_24_479)"/>
<path d="M122.401 0.113037H17.4859C7.86865 0.113037 0 7.98168 0 17.5989V23.719H139.887V17.5989C139.887 7.98168 132.018 0.113037 122.401 0.113037Z" fill="url(#paint5_linear_24_479)"/>
<path d="M122.401 0.113037H17.4859C7.86865 0.113037 0 7.98168 0 17.5989V23.719H139.887V17.5989C139.887 7.98168 132.018 0.113037 122.401 0.113037Z" fill="url(#paint6_linear_24_479)"/>
<path d="M0 76.4681V81.7139C0 91.914 8.16008 100.074 18.3602 100.074H122.401C132.018 100.074 139.887 92.2054 139.887 82.5882V76.4681H0Z" fill="url(#paint7_linear_24_479)"/>
<path d="M0 76.4681V81.7139C0 91.914 8.16008 100.074 18.3602 100.074H122.401C132.018 100.074 139.887 92.2054 139.887 82.5882V76.4681H0Z" fill="url(#paint8_linear_24_479)"/>
<path d="M25.3557 6.81592H18.3613C17.487 6.81592 16.9042 7.39878 16.9042 8.27307V15.2674C16.9042 16.1417 17.487 16.7246 18.3613 16.7246H25.3557C26.23 16.7246 26.8128 16.1417 26.8128 15.2674V8.27307C26.8128 7.39878 25.9385 6.81592 25.3557 6.81592Z" fill="url(#paint9_linear_24_479)"/>
<path d="M49.2526 6.81604H42.2583C41.384 6.81604 40.8011 7.3989 40.8011 8.2732V15.2675C40.8011 16.1418 41.384 16.7247 42.2583 16.7247H49.2526C50.1269 16.7247 50.7098 16.1418 50.7098 15.2675V8.2732C50.7098 7.3989 50.1269 6.81604 49.2526 6.81604Z" fill="url(#paint10_linear_24_479)"/>
<path d="M73.441 6.81592H66.4466C65.5723 6.81592 64.9894 7.39878 64.9894 8.27307V15.2674C64.9894 16.1417 65.5723 16.7246 66.4466 16.7246H73.441C74.3152 16.7246 74.8981 16.1417 74.8981 15.2674V8.27307C74.8981 7.39878 74.3152 6.81592 73.441 6.81592Z" fill="url(#paint11_linear_24_479)"/>
<path d="M97.6306 6.81592H90.6363C89.762 6.81592 89.1791 7.39878 89.1791 8.27307V15.2674C89.1791 16.1417 89.762 16.7246 90.6363 16.7246H97.6306C98.5049 16.7246 99.0878 16.1417 99.0878 15.2674V8.27307C99.0878 7.39878 98.5049 6.81592 97.6306 6.81592Z" fill="url(#paint12_linear_24_479)"/>
<path d="M121.818 6.81592H114.823C113.949 6.81592 113.366 7.39878 113.366 8.27307V15.2674C113.366 16.1417 113.949 16.7246 114.823 16.7246H121.818C122.692 16.7246 123.275 16.1417 123.275 15.2674V8.27307C123.275 7.39878 122.692 6.81592 121.818 6.81592Z" fill="url(#paint13_linear_24_479)"/>
<path d="M25.3557 84.6281H18.3613C17.487 84.6281 16.9042 85.2109 16.9042 86.0852V93.0796C16.9042 93.9539 17.487 94.5367 18.3613 94.5367H25.3557C26.23 94.5367 26.8128 93.9539 26.8128 93.0796V86.0852C26.8128 85.2109 25.9385 84.6281 25.3557 84.6281Z" fill="url(#paint14_linear_24_479)"/>
<path d="M49.2526 84.6281H42.2583C41.384 84.6281 40.8011 85.2109 40.8011 86.0852V93.0796C40.8011 93.9539 41.384 94.5367 42.2583 94.5367H49.2526C50.1269 94.5367 50.7098 93.9539 50.7098 93.0796V86.0852C50.7098 85.2109 50.1269 84.6281 49.2526 84.6281Z" fill="url(#paint15_linear_24_479)"/>
<path d="M73.441 84.6281H66.4466C65.5723 84.6281 64.9894 85.2109 64.9894 86.0852V93.0796C64.9894 93.9539 65.5723 94.5367 66.4466 94.5367H73.441C74.3152 94.5367 74.8981 93.9539 74.8981 93.0796V86.0852C74.8981 85.2109 74.3152 84.6281 73.441 84.6281Z" fill="url(#paint16_linear_24_479)"/>
<path d="M97.6306 84.6281H90.6363C89.762 84.6281 89.1791 85.2109 89.1791 86.0852V93.0796C89.1791 93.9539 89.762 94.5367 90.6363 94.5367H97.6306C98.5049 94.5367 99.0878 93.9539 99.0878 93.0796V86.0852C99.0878 85.2109 98.5049 84.6281 97.6306 84.6281Z" fill="url(#paint17_linear_24_479)"/>
<path d="M121.818 84.6281H114.823C113.949 84.6281 113.366 85.2109 113.366 86.0852V93.0796C113.366 93.9539 113.949 94.5367 114.823 94.5367H121.818C122.692 94.5367 123.275 93.9539 123.275 93.0796V86.0852C123.275 85.2109 122.692 84.6281 121.818 84.6281Z" fill="url(#paint18_linear_24_479)"/>
<path d="M139.888 53.1536L124.151 37.4163L93.2588 76.4681H139.888V53.1536Z" fill="url(#paint19_linear_24_479)"/>
<path d="M124.149 37.4162C122.983 35.6677 120.36 35.3762 118.612 36.8334L47.7939 107.651L54.4969 128.634L121.235 62.1879C128.229 55.485 129.103 44.9935 124.149 37.4162Z" fill="url(#paint20_linear_24_479)"/>
<path d="M27.1037 106.485L23.6065 109.983C16.6121 116.686 16.6121 127.76 23.6065 134.754C30.3094 141.749 41.6752 141.749 48.3782 134.754L57.1211 126.011C60.9097 122.223 60.9097 115.811 57.1211 112.023L51.5839 106.485C44.881 99.7825 33.8066 99.7825 27.1037 106.485ZM33.5152 114.063C36.4295 111.148 41.3838 111.148 44.2981 114.063L48.6696 118.434C49.2525 119.017 49.2525 119.891 48.6696 120.474L41.3838 127.76C38.4695 130.674 33.5152 130.674 30.6008 127.76C27.6865 124.846 27.6865 119.891 30.6008 116.977L33.5152 114.063Z" fill="url(#paint21_linear_24_479)"/>
<path d="M69.943 105.903C73.484 105.903 76.3545 103.032 76.3545 99.4912C76.3545 95.9502 73.484 93.0797 69.943 93.0797C66.402 93.0797 63.5315 95.9502 63.5315 99.4912C63.5315 103.032 66.402 105.903 69.943 105.903Z" fill="url(#paint22_linear_24_479)"/>
<path d="M27.9781 23.7191H40.5096V76.4682H27.9781V23.7191Z" fill="url(#paint23_linear_24_479)"/>
<defs>
<filter id="filter0_b_24_479" x="-13.5307" y="10.1884" width="166.949" height="79.8105" filterUnits="userSpaceOnUse" color-interpolation-filters="sRGB">
<feFlood flood-opacity="0" result="BackgroundImageFix"/>
<feGaussianBlur in="BackgroundImageFix" stdDeviation="6.76537"/>
<feComposite in2="SourceAlpha" operator="in" result="effect1_backgroundBlur_24_479"/>
<feBlend mode="normal" in="SourceGraphic" in2="effect1_backgroundBlur_24_479" result="shape"/>
</filter>
<linearGradient id="paint0_linear_24_479" x1="58.9396" y1="74.0969" x2="44.9871" y2="88.1334" gradientUnits="userSpaceOnUse">
<stop stop-color="#C9CEE2"/>
<stop offset="1" stop-color="#9EA9C9"/>
</linearGradient>
<linearGradient id="paint1_linear_24_479" x1="86.9295" y1="112.425" x2="75.6628" y2="105.206" gradientUnits="userSpaceOnUse">
<stop stop-color="#4C5C75" stop-opacity="0"/>
<stop offset="1" stop-color="#4C5C75"/>
</linearGradient>
<linearGradient id="paint2_linear_24_479" x1="112.106" y1="133.751" x2="85.7594" y2="107.246" gradientUnits="userSpaceOnUse">
<stop stop-color="#545454"/>
<stop offset="0.366" stop-color="#949393"/>
<stop offset="1" stop-color="#726D6F"/>
</linearGradient>
<linearGradient id="paint3_linear_24_479" x1="142.928" y1="81.863" x2="-6.9462" y2="54.3103" gradientUnits="userSpaceOnUse">
<stop stop-color="#E72E3F"/>
<stop offset="1" stop-color="#F06471"/>
</linearGradient>
<linearGradient id="paint4_linear_24_479" x1="105.738" y1="18.5491" x2="105.738" y2="78.4441" gradientUnits="userSpaceOnUse">
<stop stop-color="#4C5C75"/>
<stop offset="1" stop-color="#1D2943"/>
</linearGradient>
<linearGradient id="paint5_linear_24_479" x1="69.9435" y1="0.113037" x2="69.9435" y2="23.6811" gradientUnits="userSpaceOnUse">
<stop stop-color="#4C5C75"/>
<stop offset="1" stop-color="#1D2943"/>
</linearGradient>
<linearGradient id="paint6_linear_24_479" x1="69.9435" y1="0.118866" x2="69.9435" y2="23.6636" gradientUnits="userSpaceOnUse">
<stop stop-color="#4C5C75" stop-opacity="0"/>
<stop offset="0.331" stop-color="#495972" stop-opacity="0.331"/>
<stop offset="0.578" stop-color="#404F69" stop-opacity="0.578"/>
<stop offset="0.798" stop-color="#323F59" stop-opacity="0.798"/>
<stop offset="1" stop-color="#1D2943"/>
</linearGradient>
<linearGradient id="paint7_linear_24_479" x1="69.9435" y1="76.372" x2="69.9435" y2="99.9167" gradientUnits="userSpaceOnUse">
<stop stop-color="#4C5C75"/>
<stop offset="1" stop-color="#1D2943"/>
</linearGradient>
<linearGradient id="paint8_linear_24_479" x1="69.9435" y1="89.0084" x2="69.9435" y2="98.7859" gradientUnits="userSpaceOnUse">
<stop stop-color="#4C5C75" stop-opacity="0"/>
<stop offset="0.331" stop-color="#495972" stop-opacity="0.331"/>
<stop offset="0.578" stop-color="#404F69" stop-opacity="0.578"/>
<stop offset="0.798" stop-color="#323F59" stop-opacity="0.798"/>
<stop offset="1" stop-color="#1D2943"/>
</linearGradient>
<linearGradient id="paint9_linear_24_479" x1="21.6749" y1="5.14893" x2="21.6749" y2="14.9235" gradientUnits="userSpaceOnUse">
<stop stop-color="#E9E7FC"/>
<stop offset="0.533" stop-color="#E7E5FC"/>
<stop offset="0.725" stop-color="#E0E0FA"/>
<stop offset="0.862" stop-color="#D5D6F8"/>
<stop offset="0.971" stop-color="#C4C8F5"/>
<stop offset="1" stop-color="#BEC3F4"/>
</linearGradient>
<linearGradient id="paint10_linear_24_479" x1="45.8108" y1="5.14905" x2="45.8108" y2="14.9237" gradientUnits="userSpaceOnUse">
<stop stop-color="#E9E7FC"/>
<stop offset="0.533" stop-color="#E7E5FC"/>
<stop offset="0.725" stop-color="#E0E0FA"/>
<stop offset="0.862" stop-color="#D5D6F8"/>
<stop offset="0.971" stop-color="#C4C8F5"/>
<stop offset="1" stop-color="#BEC3F4"/>
</linearGradient>
<linearGradient id="paint11_linear_24_479" x1="69.9438" y1="5.14893" x2="69.9438" y2="14.9235" gradientUnits="userSpaceOnUse">
<stop stop-color="#E9E7FC"/>
<stop offset="0.533" stop-color="#E7E5FC"/>
<stop offset="0.725" stop-color="#E0E0FA"/>
<stop offset="0.862" stop-color="#D5D6F8"/>
<stop offset="0.971" stop-color="#C4C8F5"/>
<stop offset="1" stop-color="#BEC3F4"/>
</linearGradient>
<linearGradient id="paint12_linear_24_479" x1="94.081" y1="5.14893" x2="94.081" y2="14.9235" gradientUnits="userSpaceOnUse">
<stop stop-color="#E9E7FC"/>
<stop offset="0.533" stop-color="#E7E5FC"/>
<stop offset="0.725" stop-color="#E0E0FA"/>
<stop offset="0.862" stop-color="#D5D6F8"/>
<stop offset="0.971" stop-color="#C4C8F5"/>
<stop offset="1" stop-color="#BEC3F4"/>
</linearGradient>
<linearGradient id="paint13_linear_24_479" x1="118.213" y1="5.14893" x2="118.213" y2="14.9235" gradientUnits="userSpaceOnUse">
<stop stop-color="#E9E7FC"/>
<stop offset="0.533" stop-color="#E7E5FC"/>
<stop offset="0.725" stop-color="#E0E0FA"/>
<stop offset="0.862" stop-color="#D5D6F8"/>
<stop offset="0.971" stop-color="#C4C8F5"/>
<stop offset="1" stop-color="#BEC3F4"/>
</linearGradient>
<linearGradient id="paint14_linear_24_479" x1="21.6749" y1="82.7716" x2="21.6749" y2="92.5492" gradientUnits="userSpaceOnUse">
<stop stop-color="#E9E7FC"/>
<stop offset="0.533" stop-color="#E7E5FC"/>
<stop offset="0.725" stop-color="#E0E0FA"/>
<stop offset="0.862" stop-color="#D5D6F8"/>
<stop offset="0.971" stop-color="#C4C8F5"/>
<stop offset="1" stop-color="#BEC3F4"/>
</linearGradient>
<linearGradient id="paint15_linear_24_479" x1="45.8108" y1="82.7716" x2="45.8108" y2="92.5492" gradientUnits="userSpaceOnUse">
<stop stop-color="#E9E7FC"/>
<stop offset="0.533" stop-color="#E7E5FC"/>
<stop offset="0.725" stop-color="#E0E0FA"/>
<stop offset="0.862" stop-color="#D5D6F8"/>
<stop offset="0.971" stop-color="#C4C8F5"/>
<stop offset="1" stop-color="#BEC3F4"/>
</linearGradient>
<linearGradient id="paint16_linear_24_479" x1="69.9438" y1="82.7716" x2="69.9438" y2="92.5492" gradientUnits="userSpaceOnUse">
<stop stop-color="#E9E7FC"/>
<stop offset="0.533" stop-color="#E7E5FC"/>
<stop offset="0.725" stop-color="#E0E0FA"/>
<stop offset="0.862" stop-color="#D5D6F8"/>
<stop offset="0.971" stop-color="#C4C8F5"/>
<stop offset="1" stop-color="#BEC3F4"/>
</linearGradient>
<linearGradient id="paint17_linear_24_479" x1="94.081" y1="82.7716" x2="94.081" y2="92.5492" gradientUnits="userSpaceOnUse">
<stop stop-color="#E9E7FC"/>
<stop offset="0.533" stop-color="#E7E5FC"/>
<stop offset="0.725" stop-color="#E0E0FA"/>
<stop offset="0.862" stop-color="#D5D6F8"/>
<stop offset="0.971" stop-color="#C4C8F5"/>
<stop offset="1" stop-color="#BEC3F4"/>
</linearGradient>
<linearGradient id="paint18_linear_24_479" x1="118.213" y1="82.7716" x2="118.213" y2="92.5492" gradientUnits="userSpaceOnUse">
<stop stop-color="#E9E7FC"/>
<stop offset="0.533" stop-color="#E7E5FC"/>
<stop offset="0.725" stop-color="#E0E0FA"/>
<stop offset="0.862" stop-color="#D5D6F8"/>
<stop offset="0.971" stop-color="#C4C8F5"/>
<stop offset="1" stop-color="#BEC3F4"/>
</linearGradient>
<linearGradient id="paint19_linear_24_479" x1="126.45" y1="73.4197" x2="92.23" y2="41.5138" gradientUnits="userSpaceOnUse">
<stop stop-color="#4C5C75" stop-opacity="0"/>
<stop offset="1" stop-color="#4C5C75"/>
</linearGradient>
<linearGradient id="paint20_linear_24_479" x1="90.3225" y1="83.9287" x2="94.7464" y2="88.3526" gradientUnits="userSpaceOnUse">
<stop stop-color="#E3E7F0"/>
<stop offset="0.0001" stop-color="#E3E7F0"/>
<stop offset="1" stop-color="#9EA9C9"/>
</linearGradient>
<linearGradient id="paint21_linear_24_479" x1="51.0048" y1="134.228" x2="24.5081" y2="107.583" gradientUnits="userSpaceOnUse">
<stop stop-color="#545454"/>
<stop offset="0.366" stop-color="#949393"/>
<stop offset="1" stop-color="#726D6F"/>
</linearGradient>
<linearGradient id="paint22_linear_24_479" x1="71.0143" y1="94.4818" x2="68.9375" y2="103.92" gradientUnits="userSpaceOnUse">
<stop stop-color="#4C5C75"/>
<stop offset="0.133" stop-color="#46556E"/>
<stop offset="1" stop-color="#1D2943"/>
</linearGradient>
<linearGradient id="paint23_linear_24_479" x1="34.1535" y1="18.5491" x2="34.1535" y2="78.4441" gradientUnits="userSpaceOnUse">
<stop stop-color="#4C5C75"/>
<stop offset="1" stop-color="#1D2943"/>
</linearGradient>
</defs>
</svg>
