<svg width="140" height="140" viewBox="0 0 140 140" fill="none" xmlns="http://www.w3.org/2000/svg">
<g clip-path="url(#clip0_24_542)">
<path d="M70 140C108.66 140 140 108.66 140 70C140 31.3401 108.66 0 70 0C31.3401 0 0 31.3401 0 70C0 108.66 31.3401 140 70 140Z" fill="url(#paint0_linear_24_542)"/>
<path d="M110.274 58.2873L76.271 33.9519C75.5215 33.4171 74.5585 33.3482 73.7475 33.769C73.3498 33.973 73.0162 34.283 72.7835 34.6646C72.5508 35.0462 72.428 35.4846 72.4287 35.9316V48.1633C48.1078 49.4326 28.7109 69.6587 28.7109 94.3362V104.07C28.7103 104.657 28.9217 105.224 29.3062 105.667C29.6906 106.109 30.2223 106.398 30.803 106.48C31.9577 106.649 33.1341 105.94 33.4737 104.74L33.8486 103.426C38.8295 85.9638 54.4884 73.5396 72.4289 72.5033V84.6021C72.4283 85.0491 72.5511 85.4875 72.7838 85.8691C73.0165 86.2507 73.3501 86.5607 73.7477 86.7647C74.559 87.1855 75.5218 87.1117 76.2713 86.5818L110.274 62.2464C110.588 62.0207 110.844 61.7234 111.021 61.3792C111.197 61.0349 111.289 60.6536 111.289 60.2668C111.289 59.8799 111.197 59.4986 111.021 59.1544C110.844 58.8102 110.588 58.513 110.274 58.2873Z" fill="url(#paint1_linear_24_542)"/>
</g>
<defs>
<linearGradient id="paint0_linear_24_542" x1="70" y1="140" x2="70" y2="0" gradientUnits="userSpaceOnUse">
<stop stop-color="#FFE8EA"/>
<stop offset="0.503" stop-color="#FFF7F8"/>
<stop offset="1" stop-color="#EAF6FF"/>
</linearGradient>
<linearGradient id="paint1_linear_24_542" x1="113.084" y1="113.972" x2="22.1792" y2="106.844" gradientUnits="userSpaceOnUse">
<stop stop-color="#E72E3F"/>
<stop offset="1" stop-color="#F06471"/>
</linearGradient>
<clipPath id="clip0_24_542">
<rect width="140" height="140" fill="white"/>
</clipPath>
</defs>
</svg>
