<svg width="44" height="44" viewBox="0 0 44 44" fill="none" xmlns="http://www.w3.org/2000/svg">
<circle cx="22" cy="22" r="22" fill="url(#paint0_linear_24_568)"/>
<path d="M21.74 29.2C20.6067 29.2 19.6133 28.9667 18.76 28.5C17.92 28.02 17.1533 27.2 16.46 26.04L18.9 24.46C19.1933 24.9267 19.4933 25.3 19.8 25.58C20.12 25.86 20.4467 26.0667 20.78 26.2C21.1267 26.32 21.4867 26.38 21.86 26.38C22.2333 26.38 22.5733 26.3 22.88 26.14C23.2 25.9667 23.4533 25.7267 23.64 25.42C23.84 25.1133 23.94 24.7667 23.94 24.38C23.94 23.9667 23.8533 23.62 23.68 23.34C23.52 23.0467 23.28 22.8267 22.96 22.68C22.6533 22.5333 22.28 22.46 21.84 22.46C21.64 22.46 21.4267 22.4867 21.2 22.54C20.9733 22.58 20.7333 22.64 20.48 22.72C20.2267 22.8 19.9667 22.9067 19.7 23.04L18.96 21.06L22.36 17.36L23.28 17.86L17.44 17.74V14.88H26.04L26.66 16.12L22.04 21.08L21.24 20.14C21.3467 20.0867 21.52 20.04 21.76 20C22.0133 19.9467 22.2533 19.92 22.48 19.92C23.1067 19.92 23.6933 20.0333 24.24 20.26C24.7867 20.4867 25.2733 20.8 25.7 21.2C26.1267 21.6 26.46 22.0733 26.7 22.62C26.94 23.1533 27.06 23.7267 27.06 24.34C27.06 25.2733 26.82 26.1067 26.34 26.84C25.8733 27.56 25.2333 28.1333 24.42 28.56C23.62 28.9867 22.7267 29.2 21.74 29.2Z" fill="white"/>
<defs>
<linearGradient id="paint0_linear_24_568" x1="44.9565" y1="48.5" x2="-3.54499" y2="45.1378" gradientUnits="userSpaceOnUse">
<stop stop-color="#E72E3F"/>
<stop offset="1" stop-color="#F06471"/>
</linearGradient>
</defs>
</svg>
