<svg width="44" height="44" viewBox="0 0 44 44" fill="none" xmlns="http://www.w3.org/2000/svg">
<circle cx="22" cy="22" r="22" fill="url(#paint0_linear_24_561)"/>
<path d="M17.18 29L16.52 27.36L20.6 22.9C20.8267 22.6467 21.0733 22.36 21.34 22.04C21.6067 21.72 21.8667 21.3933 22.12 21.06C22.3733 20.7133 22.5733 20.38 22.72 20.06C22.88 19.74 22.96 19.4467 22.96 19.18C22.96 18.9133 22.9 18.68 22.78 18.48C22.66 18.28 22.4867 18.1267 22.26 18.02C22.0333 17.9 21.7467 17.84 21.4 17.84C21.0933 17.84 20.8 17.92 20.52 18.08C20.24 18.2267 19.9733 18.46 19.72 18.78C19.48 19.1 19.2533 19.4933 19.04 19.96L16.52 18.6C16.8 17.8267 17.1933 17.1467 17.7 16.56C18.22 15.96 18.8267 15.5 19.52 15.18C20.2133 14.8467 20.9533 14.68 21.74 14.68C22.5667 14.6933 23.3133 14.8733 23.98 15.22C24.6467 15.5533 25.1733 16.0267 25.56 16.64C25.96 17.24 26.16 17.9467 26.16 18.76C26.16 19.04 26.1267 19.3333 26.06 19.64C25.9933 19.9467 25.8933 20.2667 25.76 20.6C25.6267 20.92 25.4467 21.2667 25.22 21.64C25.0067 22 24.7467 22.38 24.44 22.78C24.1333 23.18 23.7733 23.6067 23.36 24.06L20.18 27.52L19.78 26H26.78V29H17.18Z" fill="white"/>
<defs>
<linearGradient id="paint0_linear_24_561" x1="44.9565" y1="48.5" x2="-3.54499" y2="45.1378" gradientUnits="userSpaceOnUse">
<stop stop-color="#E72E3F"/>
<stop offset="1" stop-color="#F06471"/>
</linearGradient>
</defs>
</svg>
